<svg xmlns="http://www.w3.org/2000/svg" viewBox="0 0 1440 320"><path fill="#bcbcbc" fill-opacity="1" d="M0,96L26.7,128C53.3,160,107,224,160,218.7C213.3,213,267,139,320,106.7C373.3,75,427,85,480,117.3C533.3,149,587,203,640,213.3C693.3,224,747,192,800,160C853.3,128,907,96,960,96C1013.3,96,1067,128,1120,144C1173.3,160,1227,160,1280,138.7C1333.3,117,1387,75,1413,53.3L1440,32L1440,0L1413.3,0C1386.7,0,1333,0,1280,0C1226.7,0,1173,0,1120,0C1066.7,0,1013,0,960,0C906.7,0,853,0,800,0C746.7,0,693,0,640,0C586.7,0,533,0,480,0C426.7,0,373,0,320,0C266.7,0,213,0,160,0C106.7,0,53,0,27,0L0,0Z"></path></svg>