<svg xmlns="http://www.w3.org/2000/svg" viewBox="0 0 1440 320"><path fill="#bcbcbc" fill-opacity="1" d="M0,96L26.7,128C53.3,160,107,224,160,218.7C213.3,213,267,139,320,106.7C373.3,75,427,85,480,117.3C533.3,149,587,203,640,213.3C693.3,224,747,192,800,160C853.3,128,907,96,960,96C1013.3,96,1067,128,1120,144C1173.3,160,1227,160,1280,138.7C1333.3,117,1387,75,1413,53.3L1440,32L1440,320L1413.3,320C1386.7,320,1333,320,1280,320C1226.7,320,1173,320,1120,320C1066.7,320,1013,320,960,320C906.7,320,853,320,800,320C746.7,320,693,320,640,320C586.7,320,533,320,480,320C426.7,320,373,320,320,320C266.7,320,213,320,160,320C106.7,320,53,320,27,320L0,320Z"></path></svg>