<svg id="Layer_1" data-name="Layer 1" xmlns="http://www.w3.org/2000/svg" viewBox="0 0 1920 316">
  <defs>
    <style>
      .cls-1 {
        fill: #fff;
      }

      .cls-2 {
        fill: #74cace;
      }
    </style>
  </defs>
  <title>shape</title>
  <g>
    <path class="cls-1" d="M0,208a835.49,835.49,0,0,0,254,74c125.2,15.52,222.25-1.74,308-17,123-21.89,218.69-56,297-84,73.71-26.32,112-44.24,224-82,74.14-25,112.11-37.68,156-47,117-24.83,211.43-17.44,239-15,130,11.5,224.23,52.71,283,79a1017.9,1017.9,0,0,1,159,89V316H0Z"/>
    <path class="cls-1" d="M50,210c21.52,7.84,43.13,15.27,65,22,10.93,3.3,21.86,6.56,32.89,9.51s22.05,5.84,33.17,8.41,22.23,5.11,33.42,7.34,22.41,4.3,33.65,6.25c22.52,3.82,45.16,6.88,67.91,9.53a618.79,618.79,0,0,1-68.49-5.67c-11.37-1.5-22.69-3.42-34-5.46s-22.49-4.53-33.67-7.13-22.26-5.56-33.29-8.73-22-6.6-32.81-10.36A624.34,624.34,0,0,1,50,210Z"/>
    <path class="cls-1" d="M251.5,247.5c15.37,2.55,30.73,4.72,46.14,6.19,7.71.68,15.42,1.33,23.14,1.67s15.45.64,23.18.64,15.45-.08,23.18-.4,15.44-.82,23.15-1.42c15.43-1.3,30.81-3.3,46.21-5.68a299.34,299.34,0,0,1-45.79,9.55c-7.74,1.07-15.53,1.74-23.33,2.28s-15.63.69-23.45.67-15.64-.37-23.44-.93-15.58-1.37-23.31-2.52A302.09,302.09,0,0,1,251.5,247.5Z"/>
    <path class="cls-1" d="M751.5,182.5a627.24,627.24,0,0,0,66.33-19.86c21.67-7.84,42.63-17.41,63.66-27.06,10.55-4.74,21-9.6,31.35-14.68,5.2-2.52,10.43-5.08,15.76-7.44s10.7-4.56,16.12-6.65A393.78,393.78,0,0,1,1011.5,87.5a582.55,582.55,0,0,0-65.31,22.93c-5.3,2.26-10.57,4.59-15.77,7s-10.31,5.07-15.47,7.7c-10.35,5.23-20.87,10.17-31.39,15s-21.1,9.54-31.82,14-21.59,8.61-32.64,12.19A414.62,414.62,0,0,1,751.5,182.5Z"/>
    <path class="cls-1" d="M1379.5,14.5a120.05,120.05,0,0,1,24.11-4.42,146,146,0,0,1,48.85,4.07,119,119,0,0,1,23,8.35c-8-1.63-15.91-3.25-23.85-4.53s-15.88-2.27-23.86-2.93-16-1-24-1.07S1387.67,14.21,1379.5,14.5Z"/>
    <path class="cls-1" d="M1755.5,86.5a217.74,217.74,0,0,1,39.17,10.31c6.38,2.26,12.63,4.91,18.81,7.69s12.21,5.91,18.14,9.21,11.68,6.9,17.31,10.67,11.12,7.77,16.37,12.05a217.78,217.78,0,0,1,29.2,28.07c-10.25-8.77-20.68-17.18-31.56-25-5.46-3.86-10.94-7.66-16.6-11.2s-11.34-7-17.17-10.27-11.72-6.37-17.71-9.31-12.08-5.68-18.21-8.33C1780.94,95.2,1768.33,90.67,1755.5,86.5Z"/>
    <g>
      <path class="cls-2" d="M8.5,226.5c11.79,5.07,23.5,10.19,35.29,15.09,5.91,2.4,11.79,4.87,17.73,7.16s11.87,4.66,17.86,6.84,12,4.42,18,6.52,12.06,4.13,18.1,6.19c12.12,4,24.31,7.81,36.55,11.7a327.1,327.1,0,0,1-37.67-8c-6.22-1.62-12.35-3.52-18.49-5.44s-12.17-4.11-18.21-6.32-12-4.64-17.9-7.15S48,248,42.19,245.13A329.71,329.71,0,0,1,8.5,226.5Z"/>
      <path class="cls-2" d="M288.5,303.5c12.91.56,25.75,1.15,38.58,1.46,6.42.11,12.83.28,19.25.25s12.82,0,19.23-.17,12.82-.31,19.22-.59,12.81-.64,19.22-1c12.82-.8,25.62-1.89,38.5-2.95a313.43,313.43,0,0,1-38.14,6.84c-6.42.82-12.87,1.34-19.32,1.84s-12.92.69-19.38.85-12.94.09-19.41-.1-12.93-.52-19.37-1.09A313.51,313.51,0,0,1,288.5,303.5Z"/>
      <path class="cls-2" d="M434.5,314.5c21.13-2.47,42.17-5.23,63.1-8.61,10.46-1.74,20.91-3.49,31.32-5.52s20.78-4.1,31.12-6.44,20.65-4.72,30.92-7.34,20.5-5.38,30.71-8.22c20.4-5.79,40.63-12.18,60.83-18.87a597.07,597.07,0,0,1-59.7,22.6c-10.13,3.31-20.37,6.24-30.64,9.07s-20.65,5.29-31,7.64-20.86,4.37-31.36,6.2-21,3.44-31.6,4.73A603,603,0,0,1,434.5,314.5Z"/>
      <path class="cls-2" d="M512.5,289.5c10.12-2.81,20.28-5.29,30.43-7.75s20.29-4.89,30.44-7.31,20.29-4.83,30.47-7.18,20.35-4.72,30.66-6.76c-9.7,4-19.63,7.44-29.64,10.53s-20.14,5.84-30.34,8.27-20.47,4.54-30.81,6.26S523,288.73,512.5,289.5Z"/>
      <path class="cls-2" d="M889.5,192.5c15.3-7,30.77-13.47,46.3-19.81,7.76-3.22,15.57-6.27,23.36-9.39l23.45-9.13,23.54-8.88c7.89-2.87,15.74-5.83,23.65-8.61,15.8-5.66,31.66-11.15,47.7-16.18-15.29,7-30.77,13.48-46.3,19.82-7.75,3.22-15.57,6.26-23.35,9.39l-23.46,9.12-23.55,8.87c-7.88,2.88-15.73,5.83-23.64,8.61C921.4,182,905.54,187.47,889.5,192.5Z"/>
      <path class="cls-2" d="M1033.5,165.5A193.78,193.78,0,0,1,1058,150.06a244.5,244.5,0,0,1,54-21.19,193.42,193.42,0,0,1,28.5-5.37c-9.18,3.06-18.31,6-27.37,9.1s-18,6.41-26.91,9.91-17.7,7.19-26.47,11S1042.3,161.49,1033.5,165.5Z"/>
      <path class="cls-2" d="M1123.5,101.5a216.21,216.21,0,0,1,26-13.64A275.5,275.5,0,0,1,1177,77.32a271.26,271.26,0,0,1,28.43-7.59,215.86,215.86,0,0,1,29.08-4.23l-28.14,8c-9.32,2.74-18.6,5.56-27.82,8.55s-18.4,6.15-27.56,9.4Z"/>
      <path class="cls-2" d="M1170.5,107.5a426,426,0,0,1,91.32-30.91A432.74,432.74,0,0,1,1309.61,69,464.65,464.65,0,0,1,1358,66.72c8.07.07,16.11.32,24.15.59s16.12.72,24.16,1.42a408.6,408.6,0,0,1,47.89,7,393.12,393.12,0,0,1,91.34,30.82,471.58,471.58,0,0,0-92.08-27,447.42,447.42,0,0,0-47.53-6.06q-12-.89-24-1.25c-8-.24-16-.44-24-.48a484.7,484.7,0,0,0-95.33,8.68A518.71,518.71,0,0,0,1170.5,107.5Z"/>
      <path class="cls-2" d="M1498.5,65.5a338.43,338.43,0,0,1,47.36,3.25c7.85,1,15.68,2.42,23.44,3.92s15.51,3.2,23.23,5.09,15.34,4.2,22.86,6.81,14.92,5.57,22.12,8.94a232.62,232.62,0,0,1,41,24A395,395,0,0,0,1636,97.09a330.75,330.75,0,0,0-44.65-14.48c-7.59-2-15.26-3.64-23-5.32s-15.37-3.24-23.1-4.71C1529.78,69.74,1514.19,67.49,1498.5,65.5Z"/>
      <path class="cls-2" d="M1579.5,103.5a223.94,223.94,0,0,1,34,5.73c5.61,1.32,11.16,2.92,16.65,4.57s11,3.46,16.4,5.52a170.36,170.36,0,0,1,31,15.62,157,157,0,0,1,27,21.56,330.57,330.57,0,0,0-29-18.2A249.45,249.45,0,0,0,1644.77,124c-5.28-2-10.65-3.87-16.06-5.68s-10.81-3.62-16.24-5.34C1601.59,109.57,1590.59,106.52,1579.5,103.5Z"/>
      <path class="cls-2" d="M1800.5,157.5a191.28,191.28,0,0,1,29.35,11.23,229,229,0,0,1,27.46,15.42c2.2,1.43,4.36,2.93,6.52,4.42s4.28,3,6.37,4.65c4.19,3.16,8.29,6.45,12.22,9.92a192.65,192.65,0,0,1,22.08,22.36c-8.16-6.57-16.23-13.11-24.53-19.33s-16.75-12.18-25.4-17.84-17.49-11-26.51-16.15S1809.81,162.3,1800.5,157.5Z"/>
    </g>
  </g>
</svg>
